<svg width="24" height="24" viewBox="0 0 24 24" fill="none" xmlns="http://www.w3.org/2000/svg">
<path d="M6.19925 18.7453H17.7997C18.1719 18.7453 18.5334 18.6209 18.8268 18.3919C19.1201 18.1628 19.3285 17.8423 19.4188 17.4812L21.2313 10.2314C21.256 10.1322 21.2547 10.0283 21.2274 9.92982C21.2002 9.8313 21.1478 9.74154 21.0756 9.66926C21.0033 9.59698 20.9135 9.54465 20.815 9.51736C20.7165 9.49008 20.6126 9.48877 20.5134 9.51356L19.5057 9.7655C18.6789 9.97218 17.8103 9.93717 17.0029 9.66463C16.1954 9.39209 15.4832 8.89348 14.9509 8.22805L12.9239 5.69432C12.813 5.55568 12.6723 5.44376 12.5123 5.36685C12.3523 5.28993 12.177 5.25 11.9994 5.25C11.8219 5.25 11.6466 5.28993 11.4866 5.36685C11.3266 5.44376 11.1859 5.55568 11.075 5.69432L9.04798 8.22805C8.51564 8.89347 7.80345 9.39208 6.99605 9.66462C6.18865 9.93716 5.31998 9.97217 4.49326 9.7655L3.48551 9.51356C3.38635 9.48877 3.28245 9.49008 3.18394 9.51736C3.08543 9.54465 2.99566 9.59698 2.92338 9.66926C2.8511 9.74154 2.79877 9.8313 2.77148 9.92982C2.74419 10.0283 2.74288 10.1322 2.76767 10.2314L4.58011 17.4812C4.67039 17.8423 4.87878 18.1628 5.17215 18.3919C5.46553 18.6209 5.82705 18.7453 6.19925 18.7453Z" fill="#C7222A"/>
<path d="M2.75 8.25C3.57843 8.25 4.25 7.57843 4.25 6.75C4.25 5.92157 3.57843 5.25 2.75 5.25C1.92157 5.25 1.25 5.92157 1.25 6.75C1.25 7.57843 1.92157 8.25 2.75 8.25Z" fill="#C7222A"/>
<path d="M21.25 8.25C22.0784 8.25 22.75 7.57843 22.75 6.75C22.75 5.92157 22.0784 5.25 21.25 5.25C20.4216 5.25 19.75 5.92157 19.75 6.75C19.75 7.57843 20.4216 8.25 21.25 8.25Z" fill="#C7222A"/>
<path d="M12 4C12.8284 4 13.5 3.32843 13.5 2.5C13.5 1.67157 12.8284 1 12 1C11.1716 1 10.5 1.67157 10.5 2.5C10.5 3.32843 11.1716 4 12 4Z" fill="#C7222A"/>
<path d="M18 22H6C5.73478 22 5.48043 21.8946 5.29289 21.7071C5.10536 21.5196 5 21.2652 5 21C5 20.7348 5.10536 20.4804 5.29289 20.2929C5.48043 20.1054 5.73478 20 6 20H18C18.2652 20 18.5196 20.1054 18.7071 20.2929C18.8946 20.4804 19 20.7348 19 21C19 21.2652 18.8946 21.5196 18.7071 21.7071C18.5196 21.8946 18.2652 22 18 22Z" fill="#C7222A"/>
</svg>
