<svg width="40" height="40" viewBox="0 0 40 40" fill="none" xmlns="http://www.w3.org/2000/svg">
<rect x="0.5" y="0.5" width="39" height="39" rx="19.5" fill="white"/>
<rect x="0.5" y="0.5" width="39" height="39" rx="19.5" stroke="#C7222A" stroke-linecap="square" stroke-dasharray="18 8"/>
<path d="M28.7936 21.1992H21.9805V29.2953H28.7936V21.1992Z" fill="white"/>
<path d="M18.3522 21.1992H11.5391V29.2953H18.3522V21.1992Z" fill="white"/>
<path d="M29.6334 10.1836H22.8203V18.2797H29.6334V10.1836Z" fill="white"/>
<path d="M18.1295 11.0234H11.3164V18.2789H18.1295V11.0234Z" fill="white"/>
<mask id="mask0_1999_11994" style="mask-type:luminance" maskUnits="userSpaceOnUse" x="9" y="9" width="22" height="22">
<path d="M30.6276 9.16016H9.34766V30.0565H30.6276V9.16016Z" fill="white"/>
</mask>
<g mask="url(#mask0_1999_11994)">
<path d="M15.5168 14.5248L14.4595 14.8309C14.1878 14.907 14.0003 14.9999 13.895 15.1118C13.7919 15.2238 13.7516 15.3737 13.7768 15.5573L13.783 15.606C13.8083 15.7874 13.8839 15.9205 14.0127 16.0068C14.1409 16.0913 14.3263 16.1166 14.5705 16.0829C14.7873 16.0533 14.9705 15.9922 15.116 15.9015C15.2611 15.8109 15.377 15.7011 15.4615 15.5724C15.5354 15.4605 15.5836 15.3423 15.6111 15.2158L15.5142 14.5234L15.5164 14.5256L15.5168 14.5248Z" fill="#CA1F34"/>
<path d="M20.0103 17.3242L19.0397 10.3452C18.9344 9.59353 18.2416 9.06795 17.4917 9.17369L10.5295 10.1448C9.7796 10.2505 9.25756 10.9446 9.36064 11.6963L10.3313 18.6753C10.4366 19.427 11.1294 19.9526 11.8793 19.8468L18.8415 18.8735C19.5914 18.7678 20.1156 18.0737 20.0103 17.322V17.3242ZM15.8238 16.807L15.7207 15.7895L15.6721 15.7957C15.649 16.0111 15.5898 16.2115 15.4951 16.3996C15.4026 16.5854 15.2571 16.7455 15.0593 16.8747C14.8616 17.0057 14.5917 17.0941 14.2484 17.1428C13.7661 17.2105 13.383 17.1406 13.0963 16.934C12.8101 16.7269 12.6371 16.4022 12.5738 15.9545L12.5548 15.8151C12.4894 15.3422 12.5862 14.9728 12.8455 14.7047C13.1048 14.4388 13.5427 14.2172 14.1617 14.0437L15.3894 13.6978C15.3389 13.4168 15.2252 13.2164 15.046 13.1005C14.8523 12.9757 14.5594 12.9399 14.1656 12.9948C13.8329 13.0412 13.5255 13.1279 13.2454 13.2567C12.9654 13.3854 12.7106 13.5248 12.4788 13.6748L12.4473 12.6466C12.5823 12.5497 12.738 12.4546 12.915 12.3617C13.0919 12.2688 13.2919 12.1843 13.5171 12.1082C13.7423 12.0321 13.9887 11.9772 14.2563 11.9392C14.6523 11.8843 14.9934 11.8843 15.2796 11.9392C15.5659 11.9963 15.8039 12.0998 15.9915 12.2515C16.179 12.4037 16.3264 12.5957 16.4317 12.8298C16.5392 13.062 16.6126 13.3257 16.6529 13.6212L17.0696 16.6274L15.8189 16.8026L15.8234 16.807H15.8238Z" fill="#CA1F34"/>
<path d="M25.8287 13.438C25.6393 13.438 25.4686 13.4738 25.3168 13.5455C25.1673 13.6171 25.0407 13.7145 24.9421 13.8348C24.8558 13.9405 24.7903 14.0586 24.7461 14.1914V15.4137C24.7567 15.6482 24.8049 15.8464 24.8956 16.007C24.9863 16.1676 25.1102 16.288 25.2703 16.368C25.4305 16.4481 25.6159 16.4884 25.8265 16.4884C26.1507 16.4884 26.3949 16.3933 26.5635 16.2057C26.7298 16.0154 26.8139 15.7327 26.8139 15.3549V14.5568C26.8139 14.1896 26.7298 13.9109 26.5635 13.7229C26.3972 13.5348 26.1507 13.4419 25.8265 13.4419L25.8287 13.4375V13.438Z" fill="#CA1F34"/>
<path d="M29.2052 9.21875H21.9041C21.1189 9.21875 20.4805 9.85847 20.4805 10.646V17.9648C20.4805 18.7522 21.1184 19.392 21.9041 19.392H29.2052C29.9905 19.392 30.6289 18.7522 30.6289 17.9648V10.646C30.6289 9.85847 29.991 9.21875 29.2052 9.21875ZM28.1103 15.3006C28.1103 16.0372 27.9585 16.5968 27.6533 16.9808C27.3502 17.3648 26.8972 17.5551 26.2951 17.5551C26.0004 17.5551 25.7518 17.5064 25.5452 17.4117C25.339 17.3166 25.1744 17.1817 25.0483 17.0065C24.9218 16.8335 24.8333 16.6287 24.7807 16.3942H24.732L24.7718 17.4392H23.4893V10.8004H24.7674V12.3183L24.7462 13.5597H24.7966C24.8493 13.3442 24.9355 13.15 25.0515 12.9748C25.1674 12.7996 25.3315 12.6602 25.5399 12.5567C25.7482 12.4554 26.0159 12.4028 26.3402 12.4028C26.9171 12.4028 27.3573 12.5886 27.6586 12.962C27.9599 13.3358 28.1094 13.8866 28.1094 14.617V15.301L28.1103 15.3006Z" fill="#CA1F34"/>
<path d="M18.6292 20.2617H11.5976C10.8393 20.2617 10.2266 20.8762 10.2266 21.6358V28.6821C10.2266 29.4421 10.8415 30.0562 11.5976 30.0562H18.627C19.3853 30.0562 19.9981 29.4421 19.9981 28.6821V21.6358C19.9981 20.8758 19.3853 20.2617 18.627 20.2617H18.6292ZM16.9322 27.4451C16.7574 27.5442 16.5384 27.6331 16.2752 27.711C16.0119 27.7871 15.7191 27.8251 15.3948 27.8251C14.5861 27.8251 13.9879 27.6119 13.5986 27.1832C13.2089 26.7545 13.0133 26.1533 13.0133 25.3804V24.7385C13.0133 23.9678 13.2093 23.3705 13.6008 22.9462C13.9924 22.522 14.5905 22.3087 15.3952 22.3087C15.6058 22.3087 15.8018 22.3255 15.985 22.3596C16.1681 22.3932 16.3345 22.4397 16.4862 22.4968C16.638 22.5538 16.7707 22.6149 16.8844 22.6782L16.9959 23.8284C16.8211 23.7187 16.6273 23.6258 16.4106 23.5497C16.1956 23.4758 15.9474 23.4378 15.6651 23.4378C15.2227 23.4378 14.9006 23.5519 14.6962 23.7775C14.4918 24.0036 14.3888 24.3328 14.3888 24.7654V25.3331C14.3888 25.7618 14.494 26.0909 14.7069 26.3232C14.9174 26.5554 15.2461 26.6713 15.6859 26.6713C15.966 26.6713 16.2168 26.6355 16.4336 26.5616C16.6503 26.4877 16.8525 26.3993 17.0423 26.2913L16.9308 27.4482L16.9331 27.4438L16.9322 27.4451Z" fill="#CA1F34"/>
<path d="M29.2052 19.8828H21.9041C21.1189 19.8828 20.4805 20.5225 20.4805 21.31V28.6288C20.4805 29.4163 21.1184 30.056 21.9041 30.056H29.2052C29.9905 30.056 30.6289 29.4163 30.6289 28.6288V21.31C30.6289 20.5225 29.991 19.8828 29.2052 19.8828ZM28.1059 27.9404H26.8233L26.8631 26.8954H26.8145C26.7618 27.1109 26.6733 27.3051 26.5534 27.4803C26.4335 27.6555 26.2672 27.7971 26.0566 27.9006C25.846 28.0041 25.5766 28.0568 25.2501 28.0568C24.6732 28.0568 24.233 27.8687 23.9317 27.4931C23.6304 27.1175 23.4809 26.5663 23.4809 25.8359V25.1581C23.4809 24.4171 23.6327 23.8579 23.9357 23.4756C24.2388 23.0934 24.6918 22.9036 25.2939 22.9036C25.5885 22.9036 25.835 22.95 26.0371 23.0451C26.2393 23.1381 26.4035 23.273 26.5278 23.4464C26.6521 23.6216 26.7406 23.8242 26.791 24.0587H26.8437L26.8224 22.8173V21.2994H28.105V27.9404H28.1059Z" fill="#CA1F34"/>
<path d="M26.8456 25.0121C26.8394 24.782 26.7907 24.5856 26.7023 24.4272C26.6138 24.2689 26.4917 24.1463 26.3337 24.0622C26.1758 23.9778 25.9904 23.9375 25.7776 23.9375C25.4534 23.9375 25.2047 24.0304 25.0344 24.2184C24.8619 24.4065 24.7773 24.6852 24.7773 25.0564V25.869C24.7773 26.2385 24.8636 26.515 25.0344 26.703C25.2069 26.891 25.4578 26.9839 25.7883 26.9839C25.9758 26.9839 26.1422 26.9481 26.2895 26.8782C26.4368 26.8087 26.5589 26.7114 26.658 26.5889C26.7403 26.4875 26.8014 26.3734 26.8456 26.2491V25.0077V25.0121Z" fill="#CA1F34"/>
</g>
</svg>
