<svg width="18" height="17" viewBox="0 0 18 17" fill="none" xmlns="http://www.w3.org/2000/svg">
<path d="M16.167 12.668C16.6448 12.668 17.0475 12.8346 17.3753 13.168C17.7031 13.5013 17.8642 13.8902 17.8586 14.3346L11.167 16.8346L5.33365 15.168L5.33365 7.66797H6.95865L13.017 9.90964C13.4503 10.0819 13.667 10.393 13.667 10.843C13.667 11.1041 13.5725 11.3319 13.3836 11.5263C13.1948 11.7207 12.9559 11.8235 12.667 11.8346H10.3336L8.87531 11.2763L8.60031 12.0596L10.3336 12.668H16.167ZM12.8336 1.19297C13.4225 0.509635 14.1725 0.167969 15.0836 0.167969C15.8392 0.167969 16.4781 0.445747 17.0003 1.0013C17.5225 1.55686 17.8003 2.19575 17.8336 2.91797C17.8336 3.49019 17.5559 4.17352 17.0003 4.96797C16.4448 5.76241 15.8975 6.4263 15.3586 6.95964C14.8198 7.49297 13.9781 8.28464 12.8336 9.33464C11.6781 8.28464 10.8281 7.49297 10.2836 6.95964C9.7392 6.4263 9.19198 5.76241 8.64198 4.96797C8.09198 4.17352 7.82254 3.49019 7.83365 2.91797C7.83365 2.16241 8.10309 1.52352 8.64198 1.0013C9.18087 0.47908 9.83087 0.201302 10.592 0.167969C11.4809 0.167969 12.2281 0.509635 12.8336 1.19297ZM0.320313 7.66797L3.66698 7.66797L3.66698 16.8346H0.320313L0.320313 7.66797Z" fill="#F7A500"/>
</svg>
